<svg width="32" height="32" viewBox="0 0 32 32" fill="none" xmlns="http://www.w3.org/2000/svg">
<rect width="32" height="32" fill="white"/>
<path d="M14.3815 5.23859C14.4796 5.07953 14.6267 5 14.8065 5H17.1935C17.3733 5 17.5204 5.07953 17.6185 5.23859L22 12.4122H19.0082L18.1907 10.9488H13.8093L12.9918 12.4122H10L14.3815 5.23859ZM14.8392 9.10373H17.1608L16 7.02006L14.8392 9.10373Z" fill="black"/>
<path d="M10.6559 14.4481C10.6559 13.4302 11.1627 12.7939 12.3398 12.7939H21.348V14.639H13.6313C13.288 14.639 13.1245 14.8935 13.1245 15.1957V15.5775H21.3316V17.4225H13.1245V20.2061H10.6559V14.4481Z" fill="black"/>
<path d="M10.6638 28V26.1549H18.5113C18.7728 26.1549 18.9036 25.9163 18.9036 25.6777C18.9036 25.455 18.7728 25.2165 18.5113 25.2165H12.3478C11.1707 25.2165 10.6638 24.5802 10.6638 23.5622V22.242C10.6638 21.2241 11.1707 20.5878 12.3478 20.5878H21.3396V22.4329H13.4922C13.247 22.4329 13.1162 22.6715 13.1162 22.8942C13.1162 23.1328 13.247 23.3714 13.4922 23.3714H19.6557C20.8328 23.3714 21.3396 24.0076 21.3396 25.0256V26.3458C21.3396 27.3638 20.8328 28 19.6557 28H10.6638Z" fill="black"/>
</svg>
